<?xml version="1.0" encoding="UTF-8" standalone="no"?>
<svg
   xmlns:dc="http://purl.org/dc/elements/1.1/"
   xmlns:cc="http://creativecommons.org/ns#"
   xmlns:rdf="http://www.w3.org/1999/02/22-rdf-syntax-ns#"
   xmlns:svg="http://www.w3.org/2000/svg"
   xmlns="http://www.w3.org/2000/svg"
   xmlns:sodipodi="http://sodipodi.sourceforge.net/DTD/sodipodi-0.dtd"
   xmlns:inkscape="http://www.inkscape.org/namespaces/inkscape"
   width="80"
   height="40"
   viewBox="0 0 21.166666 10.583334"
   version="1.1"
   id="svg946"
   inkscape:version="1.0.1 (3bc2e813f5, 2020-09-07)"
   sodipodi:docname="costumes.svg">
  <defs
     id="defs940" />
  <sodipodi:namedview
     id="base"
     pagecolor="#ffffff"
     bordercolor="#666666"
     borderopacity="1.0"
     inkscape:pageopacity="0.0"
     inkscape:pageshadow="2"
     inkscape:zoom="11.2"
     inkscape:cx="40.452834"
     inkscape:cy="-100.98655"
     inkscape:document-units="mm"
     inkscape:current-layer="layer1"
     inkscape:document-rotation="0"
     showgrid="true"
     units="px"
     inkscape:showpageshadow="false"
     inkscape:snap-text-baseline="true"
     inkscape:snap-smooth-nodes="true"
     inkscape:snap-global="false"
     inkscape:window-width="1920"
     inkscape:window-height="1056"
     inkscape:window-x="0"
     inkscape:window-y="0"
     inkscape:window-maximized="1">
    <inkscape:grid
       type="xygrid"
       id="grid1509" />
  </sodipodi:namedview>
  <metadata
     id="metadata943">
    <rdf:RDF>
      <cc:Work
         rdf:about="">
        <dc:format>image/svg+xml</dc:format>
        <dc:type
           rdf:resource="http://purl.org/dc/dcmitype/StillImage" />
        <dc:title />
      </cc:Work>
    </rdf:RDF>
  </metadata>
  <g
     inkscape:label="Layer 1"
     inkscape:groupmode="layer"
     id="layer1">
    <path
       id="path1729"
       style="fill:#85d1ab;fill-opacity:1;stroke:none;stroke-width:0.1;stroke-miterlimit:4;stroke-dasharray:none;stroke-opacity:1;stop-color:#000000"
       d="m -1.3229167,2e-7 v 1.322917 c 0.7306265,0 1.32291640719102,0.59229 1.322916683333344,1.322916 C 2.5947582e-7,3.3764602 -0.5922898,3.9687502 -1.3229167,3.9687502 V 6.614583 C -0.5922898,6.614583 2.5947582e-7,7.206873 -1.6666656e-8,7.9375 2.5947582e-7,8.668127 -0.5922898,9.260417 -1.3229167,9.260417 v 1.322916 H 22.489583 V 9.260417 c -0.730627,0 -1.322917,-0.59229 -1.322917,-1.322917 0,-0.730627 0.59229,-1.322917 1.322917,-1.322917 V 3.9687502 c -0.730627,0 -1.322917,-0.59229 -1.322917,-1.322917 1e-6,-0.730627 0.592291,-1.322916 1.322917,-1.322916 V 2e-7 Z"
       inkscape:export-xdpi="960"
       inkscape:export-ydpi="960"
       sodipodi:nodetypes="ccsccsccccsccsccc" />
    <path
       id="path1727"
       style="fill:#85d1ab;fill-opacity:1;stroke:none;stroke-width:0.1;stroke-miterlimit:4;stroke-dasharray:none;stroke-opacity:1;stop-color:#000000"
       d="m -1.3229167,-15.875 v 1.322917 c 0.7306265,0 1.32291640719102,0.59229 1.322916683333344,1.322916 C 2.5947582e-7,-12.49854 -0.5922898,-11.90625 -1.3229167,-11.90625 v 2.6458328 c 0.7306269,0 1.32291695947582,0.59229 1.322916683333344,1.322917 C 2.5947582e-7,-7.2068732 -0.5922898,-6.6145832 -1.3229167,-6.6145832 v 1.322916 H 22.489583 v -1.322916 c -0.730627,0 -1.322917,-0.59229 -1.322917,-1.322917 0,-0.730627 0.59229,-1.322917 1.322917,-1.322917 V -11.90625 c -0.730627,0 -1.322917,-0.59229 -1.322917,-1.322917 1e-6,-0.730627 0.592291,-1.322916 1.322917,-1.322916 V -15.875 Z"
       inkscape:export-xdpi="960"
       inkscape:export-ydpi="960"
       sodipodi:nodetypes="ccsccsccccsccsccc" />
    <path
       id="rect1627"
       style="fill:#85d1ab;fill-opacity:1;stroke:none;stroke-width:0.1;stroke-miterlimit:4;stroke-dasharray:none;stroke-opacity:1;stop-color:#000000"
       d="m -1.3229167,-31.75 v 1.322917 c 0.7306265,0 1.32291640719102,0.59229 1.322916683333344,1.322916 C 2.5947582e-7,-28.37354 -0.5922898,-27.78125 -1.3229167,-27.78125 v 2.645833 c 0.7306269,0 1.32291695947582,0.59229 1.322916683333344,1.322917 C 2.5947582e-7,-23.081873 -0.5922898,-22.489583 -1.3229167,-22.489583 v 1.322916 H 22.489583 v -1.322916 c -0.730627,0 -1.322917,-0.59229 -1.322917,-1.322917 0,-0.730627 0.59229,-1.322917 1.322917,-1.322917 v -2.645833 c -0.730627,0 -1.322917,-0.59229 -1.322917,-1.322917 1e-6,-0.730627 0.592291,-1.322916 1.322917,-1.322916 V -31.75 Z"
       inkscape:export-xdpi="960"
       inkscape:export-ydpi="960"
       sodipodi:nodetypes="ccsccsccccsccsccc" />
    <text
       xml:space="preserve"
       style="font-size:3.52777px;line-height:1.25;font-family:'Merriweather Sans';-inkscape-font-specification:'Merriweather Sans, @wght=300';font-variation-settings:'wght' 300;text-align:center;letter-spacing:0px;word-spacing:0px;writing-mode:lr-tb;text-anchor:middle;stroke-width:0.264583"
       x="10.658264"
       y="9.260417"
       id="text1513"
       inkscape:export-xdpi="960"
       inkscape:export-ydpi="960"><tspan
         sodipodi:role="line"
         id="tspan1511"
         x="10.658264"
         y="9.260417"
         style="font-style:normal;font-variant:normal;font-weight:normal;font-stretch:normal;font-family:roboto;-inkscape-font-specification:roboto;text-align:center;text-anchor:middle;stroke-width:0.264583">Adult €10</tspan></text>
    <path
       style="fill:#010002;stroke-width:0.0199164"
       d="m 12.291796,3.5717863 h -0.642045 c 0.324757,-0.4013547 0.532962,-0.9399539 0.532962,-1.4223284 0,-0.8929309 -0.726449,-1.61936053 -1.61938,-1.61936053 -0.8929312,0 -1.6194803,0.72642963 -1.6194803,1.61938043 0,0.4823753 0.2082064,1.0209737 0.532962,1.4223283 H 8.8253508 c -0.2959574,0 -0.5684938,0.1487358 -0.7289202,0.3977695 C 7.9834451,4.1450592 7.9597247,4.4523886 8.0260256,4.8831 l 0.084824,0.5517039 c 0.04473,0.2917151 0.311114,0.5201759 0.6061951,0.5201759 H 12.40014 c 0.295081,0 0.561463,-0.2284608 0.606294,-0.5201759 L 13.091254,4.8831 c 0.0663,-0.4307114 0.04258,-0.7380209 -0.0704,-0.9135244 C 12.860288,3.720522 12.587732,3.5717863 12.291796,3.5717863 Z m 0.500458,1.8301757 c -0.02807,0.182314 -0.207668,0.3363477 -0.392133,0.3363477 H 8.7170253 c -0.1844852,0 -0.3640911,-0.1540337 -0.3921339,-0.3363477 L 8.2400678,4.8502582 C 8.1837455,4.4840158 8.1973896,4.2129737 8.2785262,4.0869828 8.3988807,3.9000079 8.6034026,3.7884365 8.8253508,3.7884365 h 0.8531771 c 0.2569409,0.2387579 0.5622201,0.3917152 0.8847061,0.3917152 0.322486,0 0.627863,-0.1529573 0.884704,-0.3917152 h 0.843858 c 0.221968,0 0.426489,0.1115714 0.546824,0.298447 0.08123,0.1259909 0.09478,0.3971323 0.03846,0.7632754 z M 11.976997,2.1494778 c 0,0.4867168 -0.244493,1.051306 -0.602729,1.4223283 -0.03704,0.038343 -0.07519,0.074426 -0.114499,0.1083255 -0.04561,0.039311 -0.09241,0.07594 -0.140709,0.1083247 -0.172994,0.1161322 -0.361383,0.1859994 -0.555826,0.1859994 -0.194444,0 -0.382714,-0.069867 -0.555707,-0.1859994 C 9.959207,3.7560713 9.912427,3.7194493 9.8668178,3.6801316 9.8274986,3.6462323 9.7893629,3.6101487 9.7523178,3.5718061 9.3940829,3.2007838 9.1495893,2.6362939 9.1495893,2.1494778 c 0,-0.7795267 0.6341364,-1.41376383 1.4137637,-1.41376383 0.779627,0 1.413644,0.63423713 1.413644,1.41376383 z"
       id="path894"
       inkscape:export-xdpi="960"
       inkscape:export-ydpi="960" />
    <g
       id="g900"
       transform="matrix(0.02407053,0,0,0.02407053,-18.114648,40.376183)" />
    <g
       id="g902"
       transform="matrix(0.02407053,0,0,0.02407053,-18.114648,40.376183)" />
    <g
       id="g904"
       transform="matrix(0.02407053,0,0,0.02407053,-18.114648,40.376183)" />
    <g
       id="g906"
       transform="matrix(0.02407053,0,0,0.02407053,-18.114648,40.376183)" />
    <g
       id="g908"
       transform="matrix(0.02407053,0,0,0.02407053,-18.114648,40.376183)" />
    <g
       id="g910"
       transform="matrix(0.02407053,0,0,0.02407053,-18.114648,40.376183)" />
    <g
       id="g912"
       transform="matrix(0.02407053,0,0,0.02407053,-18.114648,40.376183)" />
    <g
       id="g914"
       transform="matrix(0.02407053,0,0,0.02407053,-18.114648,40.376183)" />
    <g
       id="g916"
       transform="matrix(0.02407053,0,0,0.02407053,-18.114648,40.376183)" />
    <g
       id="g918"
       transform="matrix(0.02407053,0,0,0.02407053,-18.114648,40.376183)" />
    <g
       id="g920"
       transform="matrix(0.02407053,0,0,0.02407053,-18.114648,40.376183)" />
    <g
       id="g922"
       transform="matrix(0.02407053,0,0,0.02407053,-18.114648,40.376183)" />
    <g
       id="g924"
       transform="matrix(0.02407053,0,0,0.02407053,-18.114648,40.376183)" />
    <g
       id="g926"
       transform="matrix(0.02407053,0,0,0.02407053,-18.114648,40.376183)" />
    <g
       id="g928"
       transform="matrix(0.02407053,0,0,0.02407053,-18.114648,40.376183)" />
    <text
       xml:space="preserve"
       style="font-size:3.52777px;line-height:1.25;font-family:'Merriweather Sans';-inkscape-font-specification:'Merriweather Sans, @wght=300';font-variation-settings:'wght' 300;text-align:center;letter-spacing:0px;word-spacing:0px;writing-mode:lr-tb;text-anchor:middle;stroke-width:0.264583"
       x="10.564385"
       y="-6.6145835"
       id="text1589"
       inkscape:export-xdpi="960"
       inkscape:export-ydpi="960"><tspan
         sodipodi:role="line"
         id="tspan1587"
         x="10.564385"
         y="-6.6145835"
         style="font-style:normal;font-variant:normal;font-weight:normal;font-stretch:normal;font-family:Roboto;-inkscape-font-specification:Roboto;text-align:center;text-anchor:middle;stroke-width:0.264583">Child €6</tspan></text>
    <path
       style="fill:#010002;stroke-width:0.0135768"
       d="m 11.764802,-12.259598 h -0.437674 c 0.221383,-0.273598 0.363314,-0.640755 0.363314,-0.969583 0,-0.608699 -0.495211,-1.103898 -1.103911,-1.103898 -0.6086995,0 -1.1039787,0.495199 -1.1039787,1.103912 0,0.328829 0.1419316,0.695984 0.3633134,0.969583 H 9.401771 c -0.2017503,0 -0.3875349,0.101391 -0.4968956,0.271154 -0.077021,0.119625 -0.093191,0.329128 -0.047994,0.622738 l 0.057823,0.37609 c 0.030492,0.198858 0.2120824,0.354597 0.4132355,0.354597 h 2.5107191 c 0.201153,0 0.382742,-0.155739 0.413303,-0.354597 l 0.05782,-0.37609 c 0.0452,-0.29361 0.02903,-0.503099 -0.04799,-0.622738 -0.109456,-0.169777 -0.295254,-0.271168 -0.49699,-0.271168 z m 0.341156,1.247608 c -0.01913,0.124281 -0.141565,0.229284 -0.267312,0.229284 H 9.3279269 c -0.1257612,0 -0.2481962,-0.105003 -0.2673126,-0.229284 l -0.057824,-0.37609 c -0.038394,-0.249662 -0.029093,-0.434428 0.026216,-0.520315 0.082044,-0.127458 0.2214641,-0.203515 0.3727634,-0.203515 h 0.5815999 c 0.1751534,0.162758 0.3832584,0.267027 0.6030934,0.267027 0.219834,0 0.428005,-0.104269 0.60309,-0.267027 h 0.575248 c 0.151312,0 0.290732,0.07606 0.372763,0.203447 0.05537,0.08589 0.06461,0.270721 0.02622,0.520316 z m -0.55575,-2.217177 c 0,0.331789 -0.166668,0.716662 -0.410873,0.969583 -0.02525,0.02614 -0.05126,0.05074 -0.07805,0.07384 -0.03109,0.0268 -0.06299,0.05177 -0.09592,0.07384 -0.117928,0.07917 -0.24635,0.126794 -0.378899,0.126794 -0.13255,0 -0.260891,-0.04763 -0.378818,-0.126794 -0.03294,-0.02207 -0.06483,-0.04704 -0.09592,-0.07384 -0.0268,-0.02311 -0.0528,-0.0477 -0.07805,-0.07384 -0.2442047,-0.252921 -0.4108728,-0.637727 -0.4108728,-0.969583 0,-0.531394 0.4322828,-0.963745 0.9637448,-0.963745 0.531461,0 0.963663,0.432351 0.963663,0.963745 z"
       id="path1591"
       inkscape:export-xdpi="960"
       inkscape:export-ydpi="960" />
    <text
       xml:space="preserve"
       style="font-size:3.52777px;line-height:1.25;font-family:'Merriweather Sans';-inkscape-font-specification:'Merriweather Sans, @wght=300';font-variation-settings:'wght' 300;text-align:center;letter-spacing:0px;word-spacing:0px;writing-mode:lr-tb;text-anchor:middle;stroke-width:0.264583"
       x="10.537685"
       y="-22.489584"
       id="text1605"
       inkscape:export-xdpi="960"
       inkscape:export-ydpi="960"><tspan
         sodipodi:role="line"
         id="tspan1603"
         x="10.537685"
         y="-22.489584"
         style="font-style:normal;font-variant:normal;font-weight:normal;font-stretch:normal;font-family:roboto;-inkscape-font-specification:roboto;text-align:center;text-anchor:middle;stroke-width:0.264583">Family €20</tspan></text>
    <rect
       style="font-variation-settings:normal;opacity:1;vector-effect:none;fill:#b3c0aa;fill-opacity:1;stroke:none;stroke-width:0.529167;stroke-linecap:butt;stroke-linejoin:miter;stroke-miterlimit:4;stroke-dasharray:none;stroke-dashoffset:0;stroke-opacity:1;stop-color:#000000;stop-opacity:1"
       id="rect1705"
       width="21.166666"
       height="10.583333"
       x="31.75"
       y="0"
       inkscape:export-xdpi="960"
       inkscape:export-ydpi="960" />
    <text
       xml:space="preserve"
       style="font-size:10.1149px;line-height:1.25;font-family:'Merriweather Sans';-inkscape-font-specification:'Merriweather Sans, @wght=300';font-variation-settings:'wght' 300;text-align:center;letter-spacing:0px;word-spacing:0px;writing-mode:lr-tb;text-anchor:middle;stroke-width:0.75862"
       x="42.298759"
       y="8.8871975"
       id="text1709"
       inkscape:export-xdpi="960"
       inkscape:export-ydpi="960"><tspan
         sodipodi:role="line"
         id="tspan1707"
         x="42.298759"
         y="8.8871975"
         style="font-style:normal;font-variant:normal;font-weight:normal;font-stretch:normal;font-family:roboto;-inkscape-font-specification:roboto;text-align:center;text-anchor:middle;stroke-width:0.75862">€5</tspan></text>
    <circle
       style="font-variation-settings:normal;opacity:1;vector-effect:none;fill:#d9d900;fill-opacity:1;stroke:#c0c0c0;stroke-width:1.32291667;stroke-linecap:butt;stroke-linejoin:miter;stroke-miterlimit:4;stroke-dasharray:none;stroke-dashoffset:0;stroke-opacity:1;stop-color:#000000;stop-opacity:1"
       id="path1711"
       cx="37.703125"
       cy="-9.921875"
       r="5.953125"
       inkscape:export-xdpi="960"
       inkscape:export-ydpi="960" />
    <text
       xml:space="preserve"
       style="font-size:5.52886px;line-height:1.25;font-family:'Merriweather Sans';-inkscape-font-specification:'Merriweather Sans, @wght=300';font-variation-settings:'wght' 300;letter-spacing:0px;word-spacing:0px;writing-mode:lr-tb;stroke-width:0.414664"
       x="34.570194"
       y="-7.9565382"
       id="text1719"
       inkscape:export-xdpi="960"
       inkscape:export-ydpi="960"><tspan
         sodipodi:role="line"
         id="tspan1717"
         x="34.570194"
         y="-7.9565382"
         style="font-style:normal;font-variant:normal;font-weight:normal;font-stretch:normal;font-family:roboto;-inkscape-font-specification:roboto;stroke-width:0.414664">€2</tspan></text>
    <ellipse
       style="font-variation-settings:normal;opacity:1;vector-effect:none;fill:#c0c0c0;fill-opacity:1;stroke:#d9d900;stroke-width:1.05833;stroke-linecap:butt;stroke-linejoin:miter;stroke-miterlimit:4;stroke-dasharray:none;stroke-dashoffset:0;stroke-opacity:1;stop-color:#000000;stop-opacity:1"
       id="circle1721"
       cx="37.041668"
       cy="-25.664581"
       inkscape:export-xdpi="960"
       inkscape:export-ydpi="960"
       rx="4.7625003"
       ry="4.7625012" />
    <text
       xml:space="preserve"
       style="font-size:4.46784px;line-height:1.25;font-family:'Merriweather Sans';-inkscape-font-specification:'Merriweather Sans, @wght=300';font-variation-settings:'wght' 300;letter-spacing:0px;word-spacing:0px;writing-mode:lr-tb;stroke-width:0.335088"
       x="34.887375"
       y="-24.076405"
       id="text1725"
       inkscape:export-xdpi="960"
       inkscape:export-ydpi="960"><tspan
         sodipodi:role="line"
         id="tspan1723"
         x="34.887375"
         y="-24.076405"
         style="font-style:normal;font-variant:normal;font-weight:normal;font-stretch:normal;font-family:roboto;-inkscape-font-specification:roboto;stroke-width:0.335088">€1</tspan></text>
    <path
       style="fill:#010002;stroke-width:0.0199164"
       d="m 7.6537259,-27.983661 h -0.642045 c 0.324757,-0.401355 0.532962,-0.939954 0.532962,-1.422329 0,-0.89293 -0.726449,-1.61936 -1.61938,-1.61936 -0.8929312,0 -1.6194803,0.72643 -1.6194803,1.61938 0,0.482376 0.2082064,1.020974 0.532962,1.422329 H 4.1872807 c -0.2959574,0 -0.5684938,0.148735 -0.7289202,0.397769 -0.1129855,0.175484 -0.1367059,0.482813 -0.070405,0.913525 l 0.084824,0.551703 c 0.04473,0.291716 0.311114,0.520176 0.6061951,0.520176 h 3.6830953 c 0.295081,0 0.561463,-0.22846 0.606294,-0.520176 l 0.08482,-0.551703 c 0.0663,-0.430712 0.04258,-0.738021 -0.0704,-0.913525 -0.160566,-0.249053 -0.433122,-0.397789 -0.729058,-0.397789 z m 0.500458,1.830176 c -0.02807,0.182314 -0.207668,0.336347 -0.392133,0.336347 H 4.0789552 c -0.1844852,0 -0.3640911,-0.154033 -0.3921339,-0.336347 l -0.084824,-0.551704 c -0.056322,-0.366243 -0.042678,-0.637285 0.038458,-0.763276 0.1203545,-0.186975 0.3248764,-0.298546 0.5468246,-0.298546 H 5.040457 c 0.2569409,0.238758 0.5622201,0.391715 0.8847061,0.391715 0.322486,0 0.627863,-0.152957 0.884704,-0.391715 h 0.843858 c 0.221968,0 0.426489,0.111571 0.546824,0.298447 0.08123,0.125991 0.09478,0.397132 0.03846,0.763275 z m -0.815257,-3.252485 c 0,0.486717 -0.244493,1.051306 -0.602729,1.422329 -0.03704,0.03834 -0.07519,0.07443 -0.114499,0.108325 -0.04561,0.03931 -0.09241,0.07594 -0.140709,0.108325 -0.172994,0.116132 -0.361383,0.185999 -0.555826,0.185999 -0.194444,0 -0.382714,-0.06987 -0.555707,-0.185999 -0.04832,-0.03239 -0.0951,-0.06901 -0.1407092,-0.108325 -0.039319,-0.0339 -0.077455,-0.06998 -0.1145,-0.108325 -0.3582349,-0.371023 -0.6027285,-0.935513 -0.6027285,-1.422329 0,-0.779526 0.6341364,-1.413763 1.4137637,-1.413763 0.779627,0 1.413644,0.634237 1.413644,1.413763 z"
       id="path1617"
       inkscape:export-xdpi="960"
       inkscape:export-ydpi="960" />
    <path
       style="fill:#010002;stroke-width:0.0135768"
       d="m 16.100771,-27.225061 h -0.437674 c 0.221383,-0.273598 0.363314,-0.640755 0.363314,-0.969583 0,-0.608699 -0.495211,-1.103898 -1.103911,-1.103898 -0.6087,0 -1.103979,0.495199 -1.103979,1.103912 0,0.328829 0.141932,0.695984 0.363314,0.969583 H 13.73774 c -0.20175,0 -0.387535,0.101391 -0.496896,0.271154 -0.07702,0.119625 -0.09319,0.329128 -0.04799,0.622738 l 0.05782,0.37609 c 0.03049,0.198858 0.212083,0.354597 0.413236,0.354597 h 2.510719 c 0.201153,0 0.382742,-0.155739 0.413303,-0.354597 l 0.05782,-0.37609 c 0.0452,-0.29361 0.02903,-0.503099 -0.04799,-0.622738 -0.109456,-0.169777 -0.295254,-0.271168 -0.496991,-0.271168 z m 0.341156,1.247608 c -0.01913,0.124281 -0.141565,0.229284 -0.267312,0.229284 h -2.510719 c -0.125761,0 -0.248196,-0.105003 -0.267313,-0.229284 l -0.05782,-0.37609 c -0.03839,-0.249662 -0.02909,-0.434428 0.02622,-0.520315 0.08204,-0.127458 0.221464,-0.203515 0.372764,-0.203515 h 0.5816 c 0.175153,0.162758 0.383258,0.267027 0.603093,0.267027 0.219834,0 0.428005,-0.104269 0.60309,-0.267027 h 0.575248 c 0.151312,0 0.290732,0.07606 0.372763,0.203447 0.05537,0.08589 0.06461,0.270721 0.02622,0.520316 z m -0.55575,-2.217177 c 0,0.331789 -0.166668,0.716662 -0.410873,0.969583 -0.02525,0.02614 -0.05126,0.05074 -0.07805,0.07384 -0.03109,0.0268 -0.06299,0.05177 -0.09592,0.07384 -0.117928,0.07917 -0.24635,0.126794 -0.378899,0.126794 -0.13255,0 -0.260891,-0.04763 -0.378818,-0.126794 -0.03294,-0.02207 -0.06483,-0.04704 -0.09592,-0.07384 -0.0268,-0.02311 -0.0528,-0.0477 -0.07805,-0.07384 -0.244205,-0.252921 -0.410873,-0.637727 -0.410873,-0.969583 0,-0.531394 0.432283,-0.963745 0.963745,-0.963745 0.531461,0 0.963663,0.432351 0.963663,0.963745 z"
       id="path1625"
       inkscape:export-xdpi="960"
       inkscape:export-ydpi="960" />
    <path
       style="fill:#010002;stroke-width:0.0148688"
       d="m 4.2148992,-27.379665 h -0.479326 c 0.242451,-0.299635 0.397889,-0.701732 0.397889,-1.061853 0,-0.666626 -0.542338,-1.20895 -1.208964,-1.20895 -0.666627,0 -1.209039,0.542324 -1.209039,1.208965 0,0.360122 0.155439,0.762218 0.397889,1.061853 h -0.486358 c -0.220949,0 -0.424414,0.11104 -0.544183,0.296959 -0.08435,0.131009 -0.10205798,0.360449 -0.05256,0.682 l 0.06332,0.411881 c 0.03339,0.217782 0.232266,0.388342 0.452561,0.388342 h 2.749651 c 0.220296,0 0.419166,-0.17056 0.452635,-0.388342 l 0.06332,-0.411881 c 0.0495,-0.321551 0.03179,-0.550976 -0.05256,-0.682 -0.119872,-0.185934 -0.323351,-0.296974 -0.544286,-0.296974 z m 0.373622,1.366336 c -0.02095,0.136109 -0.155037,0.251104 -0.292751,0.251104 h -2.749651 c -0.137729,0 -0.271815,-0.114995 -0.292752,-0.251104 l -0.06332,-0.41188 c -0.04204,-0.273421 -0.03186,-0.47577 0.02872,-0.569831 0.08985,-0.139587 0.24254,-0.222882 0.408238,-0.222882 h 0.636948 c 0.191821,0.178247 0.41973,0.292438 0.660486,0.292438 0.240754,0 0.468736,-0.114191 0.660483,-0.292438 h 0.629991 c 0.165712,0 0.3184,0.0833 0.408237,0.222808 0.06064,0.09406 0.07076,0.296484 0.02871,0.569831 z m -0.608638,-2.428174 c 0,0.363364 -0.182529,0.784863 -0.449974,1.061853 -0.02765,0.02863 -0.05614,0.05557 -0.08548,0.08087 -0.03405,0.02935 -0.06899,0.0567 -0.105049,0.08087 -0.12915,0.0867 -0.269793,0.138861 -0.414956,0.138861 -0.145165,0 -0.285719,-0.05216 -0.414869,-0.138861 -0.03607,-0.02417 -0.071,-0.05152 -0.105048,-0.08087 -0.02935,-0.02531 -0.05782,-0.05224 -0.08548,-0.08087 -0.267445,-0.27699 -0.449974,-0.698416 -0.449974,-1.061853 0,-0.581964 0.473421,-1.055459 1.05546,-1.055459 0.582037,0 1.055369,0.473495 1.05537,1.055459 z"
       id="path2218"
       inkscape:export-xdpi="960"
       inkscape:export-ydpi="960" />
    <path
       style="fill:#010002;stroke-width:0.016117"
       d="M 10.322674,-27.52903 H 9.8031098 c 0.2628032,-0.324789 0.4312912,-0.760643 0.4312912,-1.150996 0,-0.72259 -0.5878672,-1.310442 -1.3104572,-1.310442 -0.72259,0 -1.310538,0.587852 -1.310538,1.310458 0,0.390355 0.168488,0.826207 0.431292,1.150997 h -0.527188 c -0.239498,0 -0.460044,0.120361 -0.589868,0.321888 -0.09143,0.142008 -0.110626,0.390709 -0.05697,0.739255 l 0.06864,0.446458 c 0.03619,0.236065 0.251765,0.420944 0.490554,0.420944 h 2.9804852 c 0.23879,0 0.454355,-0.184879 0.490634,-0.420944 l 0.06864,-0.446458 c 0.05365,-0.348546 0.03446,-0.597231 -0.05697,-0.739255 -0.129935,-0.201543 -0.350496,-0.321905 -0.589979,-0.321905 z m 0.404988,1.481041 c -0.02271,0.147535 -0.168052,0.272184 -0.317328,0.272184 H 7.4298498 c -0.149292,0 -0.294635,-0.124649 -0.317329,-0.272184 l -0.06864,-0.446458 c -0.04557,-0.296374 -0.03454,-0.515711 0.03113,-0.617668 0.09739,-0.151306 0.262901,-0.241593 0.44251,-0.241593 h 0.69042 c 0.207925,0.193211 0.454967,0.316988 0.715934,0.316988 0.260966,0 0.508087,-0.123777 0.715931,-0.316988 h 0.6828782 c 0.179624,0 0.34513,0.09029 0.442509,0.241513 0.06573,0.101956 0.0767,0.321374 0.03112,0.617668 z m -0.659733,-2.632021 c 0,0.393869 -0.1978518,0.850753 -0.4877492,1.150997 -0.02997,0.03103 -0.06085,0.06023 -0.09266,0.08766 -0.03691,0.03181 -0.07478,0.06146 -0.113868,0.08766 -0.139992,0.09398 -0.292442,0.150518 -0.449792,0.150518 -0.157352,0 -0.309705,-0.05654 -0.449697,-0.150518 -0.0391,-0.0262 -0.07696,-0.05585 -0.113867,-0.08766 -0.03181,-0.02743 -0.06267,-0.05663 -0.09266,-0.08766 -0.289898,-0.300244 -0.48775,-0.757049 -0.48775,-1.150997 0,-0.63082 0.513165,-1.144065 1.144067,-1.144065 0.630899,0 1.1439662,0.513245 1.1439662,1.144065 z"
       id="path2220"
       inkscape:export-xdpi="960"
       inkscape:export-ydpi="960" />
    <path
       style="fill:#010002;stroke-width:0.0186502"
       d="m 13.542696,-27.832153 h -0.601228 c 0.304111,-0.375837 0.499081,-0.880197 0.499081,-1.331904 0,-0.836163 -0.680266,-1.516411 -1.516429,-1.516411 -0.836163,0 -1.516522,0.680248 -1.516522,1.51643 0,0.451709 0.19497,0.956066 0.49908,1.331905 h -0.610049 c -0.277141,0 -0.5323503,0.139279 -0.6825803,0.372481 -0.105801,0.164328 -0.128014,0.452119 -0.06593,0.855448 l 0.07943,0.51663 c 0.04188,0.273169 0.2913365,0.487106 0.5676573,0.487106 h 3.448944 c 0.276322,0 0.525768,-0.213937 0.56775,-0.487106 l 0.07943,-0.51663 c 0.06208,-0.403329 0.03988,-0.691101 -0.06592,-0.855448 -0.150358,-0.233221 -0.405586,-0.372501 -0.682709,-0.372501 z m 0.468642,1.713825 c -0.02628,0.170724 -0.194465,0.314964 -0.367204,0.314964 h -3.448943 c -0.172757,0 -0.3409438,-0.14424 -0.3672048,-0.314964 l -0.079429,-0.516631 c -0.05273,-0.342956 -0.03997,-0.596768 0.03602,-0.71475 0.112698,-0.175087 0.3042228,-0.279565 0.5120618,-0.279565 h 0.798937 c 0.240606,0.223579 0.526477,0.366811 0.828461,0.366811 0.301984,0 0.587945,-0.143232 0.828457,-0.366811 h 0.790211 c 0.207856,0 0.399376,0.104481 0.51206,0.279473 0.07606,0.117981 0.08876,0.371886 0.03601,0.71475 z m -0.763426,-3.04571 c 0,0.455775 -0.228951,0.98447 -0.564413,1.331905 -0.03468,0.03591 -0.07041,0.0697 -0.107224,0.101438 -0.04271,0.03681 -0.08653,0.07112 -0.131765,0.101438 -0.161994,0.108752 -0.338406,0.174176 -0.520487,0.174176 -0.182084,0 -0.358383,-0.06543 -0.520378,-0.174176 -0.04525,-0.03032 -0.08906,-0.06463 -0.131764,-0.101438 -0.03681,-0.03174 -0.07252,-0.06553 -0.107224,-0.101438 -0.335463,-0.347435 -0.564413,-0.876038 -0.564413,-1.331905 0,-0.72997 0.593822,-1.323884 1.323887,-1.323884 0.730059,0 1.323769,0.593914 1.323769,1.323884 z"
       id="path2222"
       inkscape:export-xdpi="960"
       inkscape:export-ydpi="960" />
    <path
       style="fill:#010002;stroke-width:0.017402"
       d="m 19.433227,-27.682788 h -0.560988 c 0.283757,-0.350683 0.465678,-0.821286 0.465678,-1.242761 0,-0.7802 -0.634737,-1.414919 -1.414937,-1.414919 -0.7802,0 -1.415023,0.634719 -1.415023,1.414936 0,0.421477 0.181921,0.892078 0.465678,1.242763 h -0.569219 c -0.258593,0 -0.496722,0.129957 -0.636897,0.347551 -0.09872,0.153329 -0.119445,0.421859 -0.06151,0.798193 l 0.07411,0.482053 c 0.03908,0.254885 0.271838,0.454504 0.529665,0.454504 h 3.21811 c 0.257828,0 0.490579,-0.199619 0.529751,-0.454504 l 0.07411,-0.482053 c 0.05793,-0.376334 0.03721,-0.644846 -0.06151,-0.798193 -0.140294,-0.217612 -0.37844,-0.34757 -0.637016,-0.34757 z m 0.437276,1.59912 c -0.02452,0.159297 -0.18145,0.293884 -0.342627,0.293884 h -3.218109 c -0.161195,0 -0.318125,-0.134587 -0.342629,-0.293884 l -0.07411,-0.482053 c -0.0492,-0.320003 -0.03729,-0.556827 0.03361,-0.666913 0.105155,-0.163369 0.283861,-0.260854 0.47779,-0.260854 h 0.745465 c 0.224502,0.208615 0.49124,0.34226 0.773013,0.34226 0.281772,0 0.548595,-0.133645 0.77301,-0.34226 h 0.737322 c 0.193945,0 0.372646,0.09749 0.477789,0.260768 0.07097,0.110085 0.08282,0.346996 0.0336,0.666913 z m -0.712331,-2.841864 c 0,0.425271 -0.213627,0.918581 -0.526637,1.242763 -0.03236,0.0335 -0.0657,0.06503 -0.100047,0.09465 -0.03985,0.03435 -0.08074,0.06636 -0.122946,0.09465 -0.151153,0.101473 -0.315758,0.162519 -0.485653,0.162519 -0.169897,0 -0.334397,-0.06105 -0.48555,-0.162519 -0.04222,-0.02829 -0.0831,-0.0603 -0.122945,-0.09465 -0.03435,-0.02962 -0.06767,-0.06114 -0.100047,-0.09465 -0.313011,-0.324182 -0.526637,-0.817406 -0.526637,-1.242763 0,-0.681113 0.554078,-1.235277 1.23528,-1.235277 0.681198,0 1.235172,0.554164 1.235172,1.235277 z"
       id="path2224"
       inkscape:export-xdpi="960"
       inkscape:export-ydpi="960" />
  </g>
</svg>
